<?xml version="1.0" encoding="UTF-8"?>
<svg version="1.1" xmlns="http://www.w3.org/2000/svg" width="500" height="500">
<path d="M0,0 L500,0 L500,500 L0,500 Z " fill="#1D3B58" transform="translate(0,0)"/>
<path d="M0,0 L20,0 L20,3 L21,3 L21,5 L22,5 L22,8 L23,8 L23,10 L24,10 L24,12 L25,12 L25,15 L26,15 L26,17 L27,17 L27,19 L28,19 L28,22 L29,22 L29,24 L30,24 L30,26 L31,26 L31,29 L32,29 L32,31 L33,31 L33,33 L34,33 L34,36 L35,36 L35,38 L36,38 L36,40 L37,40 L37,43 L38,43 L38,45 L39,45 L39,47 L40,47 L40,50 L41,50 L41,52 L42,52 L42,54 L43,54 L43,57 L44,57 L44,59 L45,59 L45,61 L46,61 L46,64 L47,64 L47,66 L48,66 L48,68 L49,68 L49,71 L50,71 L50,73 L51,73 L51,75 L52,75 L52,78 L53,78 L53,80 L54,80 L54,82 L55,82 L55,85 L56,85 L56,87 L57,87 L57,89 L58,89 L58,92 L59,92 L59,94 L60,94 L60,97 L61,97 L61,99 L62,99 L62,101 L63,101 L63,104 L64,104 L64,106 L65,106 L65,108 L66,108 L66,111 L67,111 L67,113 L68,113 L68,115 L69,115 L69,118 L70,118 L70,120 L71,120 L71,122 L72,122 L72,125 L73,125 L73,127 L74,127 L74,129 L75,129 L75,132 L76,132 L76,134 L77,134 L77,136 L78,136 L78,139 L79,139 L79,141 L80,141 L80,143 L81,143 L81,146 L82,146 L82,148 L83,148 L83,150 L84,150 L84,153 L85,153 L85,155 L86,155 L86,157 L87,157 L87,160 L88,160 L88,162 L89,162 L89,164 L90,164 L90,167 L91,167 L91,169 L92,169 L92,171 L93,171 L93,174 L94,174 L94,176 L95,176 L95,178 L96,178 L96,181 L97,181 L97,183 L98,183 L98,186 L99,186 L99,188 L88,188 L88,189 L77,189 L77,188 L76,188 L76,186 L75,186 L75,184 L74,184 L74,181 L73,181 L73,179 L72,179 L72,177 L71,177 L71,174 L70,174 L70,172 L69,172 L69,170 L68,170 L68,167 L67,167 L67,165 L66,165 L66,163 L65,163 L65,160 L64,160 L64,158 L63,158 L63,156 L62,156 L62,153 L61,153 L61,151 L60,151 L60,149 L59,149 L59,146 L58,146 L58,144 L57,144 L57,142 L56,142 L56,139 L55,139 L55,137 L54,137 L54,134 L53,134 L53,132 L52,132 L52,130 L3,130 L3,131 L-25,131 L-25,133 L-26,133 L-26,136 L-27,136 L-27,138 L-28,138 L-28,141 L-29,141 L-29,144 L-30,144 L-30,147 L-31,147 L-31,150 L-32,150 L-32,152 L-33,152 L-33,155 L-34,155 L-34,158 L-35,158 L-35,161 L-36,161 L-36,164 L-37,164 L-37,166 L-38,166 L-38,169 L-39,169 L-39,172 L-40,172 L-40,175 L-41,175 L-41,178 L-42,178 L-42,181 L-43,181 L-43,183 L-44,183 L-44,186 L-45,186 L-45,189 L-46,189 L-46,192 L-47,192 L-47,193 L-68,193 L-68,189 L-67,189 L-67,186 L-66,186 L-66,183 L-65,183 L-65,181 L-64,181 L-64,178 L-63,178 L-63,175 L-62,175 L-62,172 L-61,172 L-61,169 L-60,169 L-60,167 L-59,167 L-59,164 L-58,164 L-58,161 L-57,161 L-57,158 L-56,158 L-56,155 L-55,155 L-55,153 L-54,153 L-54,150 L-53,150 L-53,147 L-52,147 L-52,144 L-51,144 L-51,141 L-50,141 L-50,139 L-49,139 L-49,136 L-48,136 L-48,133 L-47,133 L-47,130 L-46,130 L-46,128 L-45,128 L-45,125 L-44,125 L-44,122 L-43,122 L-43,119 L-42,119 L-42,116 L-41,116 L-41,114 L-40,114 L-40,111 L-39,111 L-39,108 L-38,108 L-38,105 L-37,105 L-37,102 L-36,102 L-36,100 L-35,100 L-35,97 L-34,97 L-34,94 L-33,94 L-33,91 L-32,91 L-32,89 L-31,89 L-31,86 L-30,86 L-30,83 L-29,83 L-29,80 L-28,80 L-28,77 L-27,77 L-27,75 L-26,75 L-26,72 L-25,72 L-25,69 L-24,69 L-24,66 L-23,66 L-23,63 L-22,63 L-22,61 L-21,61 L-21,58 L-20,58 L-20,55 L-19,55 L-19,53 L-18,53 L-18,50 L-17,50 L-17,47 L-16,47 L-16,44 L-15,44 L-15,41 L-14,41 L-14,38 L-13,38 L-13,36 L-12,36 L-12,33 L-11,33 L-11,30 L-10,30 L-10,27 L-9,27 L-9,24 L-8,24 L-8,22 L-7,22 L-7,19 L-6,19 L-6,16 L-5,16 L-5,13 L-4,13 L-4,10 L-3,10 L-3,8 L-2,8 L-2,5 L-1,5 L-1,2 L0,2 Z " fill="#38B4FC" transform="translate(255,124)"/>
<path d="M0,0 L23,0 L23,2 L24,2 L24,5 L25,5 L25,8 L26,8 L26,10 L27,10 L27,13 L28,13 L28,16 L29,16 L29,19 L30,19 L30,22 L31,22 L31,25 L32,25 L32,27 L33,27 L33,30 L34,30 L34,33 L35,33 L35,36 L36,36 L36,39 L37,39 L37,41 L38,41 L38,44 L39,44 L39,47 L40,47 L40,50 L41,50 L41,53 L42,53 L42,56 L43,56 L43,58 L44,58 L44,61 L45,61 L45,64 L46,64 L46,67 L47,67 L47,70 L48,70 L48,72 L49,72 L49,75 L50,75 L50,78 L51,78 L51,81 L52,81 L52,84 L53,84 L53,86 L54,86 L54,89 L55,89 L55,92 L56,92 L56,95 L57,95 L57,98 L58,98 L58,101 L59,101 L59,103 L60,103 L60,106 L61,106 L61,109 L62,109 L62,112 L63,112 L63,115 L64,115 L64,117 L65,117 L65,120 L66,120 L66,123 L67,123 L67,126 L68,126 L68,129 L69,129 L69,132 L70,132 L70,135 L71,135 L71,138 L72,138 L72,142 L73,142 L73,145 L74,145 L74,150 L75,150 L75,154 L76,154 L76,156 L77,156 L77,160 L78,160 L78,163 L79,163 L79,160 L80,160 L80,156 L81,156 L81,152 L82,152 L82,148 L83,148 L83,144 L84,144 L84,141 L85,141 L85,138 L86,138 L86,135 L87,135 L87,132 L88,132 L88,129 L89,129 L89,126 L90,126 L90,123 L91,123 L91,120 L92,120 L92,117 L93,117 L93,114 L94,114 L94,112 L95,112 L95,109 L96,109 L96,106 L97,106 L97,103 L98,103 L98,100 L99,100 L99,98 L100,98 L100,95 L101,95 L101,92 L102,92 L102,89 L103,89 L103,86 L104,86 L104,83 L105,83 L105,81 L106,81 L106,78 L107,78 L107,75 L108,75 L108,72 L109,72 L109,69 L110,69 L110,67 L111,67 L111,64 L112,64 L112,61 L113,61 L113,58 L114,58 L114,55 L115,55 L115,53 L116,53 L116,50 L117,50 L117,47 L118,47 L118,44 L119,44 L119,41 L120,41 L120,38 L121,38 L121,36 L122,36 L122,33 L123,33 L123,30 L124,30 L124,27 L125,27 L125,24 L126,24 L126,22 L127,22 L127,19 L128,19 L128,16 L129,16 L129,13 L130,13 L130,10 L131,10 L131,7 L132,7 L132,5 L133,5 L133,2 L134,2 L134,1 L136,1 L136,3 L135,3 L135,6 L134,6 L134,8 L133,8 L133,11 L132,11 L132,14 L131,14 L131,16 L130,16 L130,19 L129,19 L129,22 L128,22 L128,25 L127,25 L127,28 L126,28 L126,30 L125,30 L125,33 L124,33 L124,36 L123,36 L123,39 L122,39 L122,42 L121,42 L121,44 L120,44 L120,47 L119,47 L119,50 L118,50 L118,53 L117,53 L117,55 L116,55 L116,58 L115,58 L115,61 L114,61 L114,64 L113,64 L113,67 L112,67 L112,69 L111,69 L111,72 L110,72 L110,75 L109,75 L109,78 L108,78 L108,81 L107,81 L107,83 L106,83 L106,86 L105,86 L105,89 L104,89 L104,92 L103,92 L103,94 L102,94 L102,97 L101,97 L101,100 L100,100 L100,103 L99,103 L99,106 L98,106 L98,108 L97,108 L97,111 L96,111 L96,114 L95,114 L95,117 L94,117 L94,120 L93,120 L93,122 L92,122 L92,125 L91,125 L91,128 L90,128 L90,131 L89,131 L89,134 L88,134 L88,136 L87,136 L87,139 L86,139 L86,142 L85,142 L85,146 L105,146 L105,148 L104,148 L104,151 L103,151 L103,154 L102,154 L102,157 L101,157 L101,159 L100,159 L100,162 L99,162 L99,165 L98,165 L98,168 L97,168 L97,170 L96,170 L96,173 L95,173 L95,176 L94,176 L94,179 L93,179 L93,182 L92,182 L92,184 L91,184 L91,187 L90,187 L90,190 L67,190 L67,187 L66,187 L66,184 L65,184 L65,182 L64,182 L64,179 L63,179 L63,176 L62,176 L62,173 L61,173 L61,170 L60,170 L60,168 L59,168 L59,165 L58,165 L58,162 L57,162 L57,159 L56,159 L56,157 L55,157 L55,154 L54,154 L54,151 L53,151 L53,148 L52,148 L52,145 L51,145 L51,143 L50,143 L50,140 L49,140 L49,137 L48,137 L48,134 L47,134 L47,131 L46,131 L46,129 L45,129 L45,126 L44,126 L44,123 L43,123 L43,120 L42,120 L42,117 L41,117 L41,115 L40,115 L40,112 L39,112 L39,109 L38,109 L38,106 L37,106 L37,104 L36,104 L36,101 L35,101 L35,98 L34,98 L34,95 L33,95 L33,92 L32,92 L32,90 L31,90 L31,87 L30,87 L30,84 L29,84 L29,81 L28,81 L28,78 L27,78 L27,76 L26,76 L26,73 L25,73 L25,70 L24,70 L24,67 L23,67 L23,65 L22,65 L22,62 L21,62 L21,59 L20,59 L20,56 L19,56 L19,53 L18,53 L18,51 L17,51 L17,48 L16,48 L16,45 L15,45 L15,42 L14,42 L14,39 L13,39 L13,37 L12,37 L12,34 L11,34 L11,31 L10,31 L10,28 L9,28 L9,25 L8,25 L8,23 L7,23 L7,20 L6,20 L6,17 L5,17 L5,14 L4,14 L4,12 L3,12 L3,9 L2,9 L2,6 L1,6 L1,3 L0,3 Z " fill="#7CD657" transform="translate(102,171)"/>
<path d="M0,0 L1,0 L1,3 L2,3 L2,6 L3,6 L3,9 L4,9 L4,12 L5,12 L5,15 L6,15 L6,17 L7,17 L7,20 L8,20 L8,23 L9,23 L9,25 L10,25 L10,28 L11,28 L11,30 L12,30 L12,33 L13,33 L13,35 L14,35 L14,38 L15,38 L15,40 L16,40 L16,42 L17,42 L17,45 L18,45 L18,47 L19,47 L19,50 L20,50 L20,52 L21,52 L21,55 L22,55 L22,57 L23,57 L23,59 L24,59 L24,62 L25,62 L25,64 L26,64 L26,67 L27,67 L27,69 L28,69 L28,72 L29,72 L29,74 L30,74 L30,77 L31,77 L31,79 L32,79 L32,81 L33,81 L33,85 L-8,85 L-8,86 L-27,86 L-27,83 L-26,83 L-26,80 L-25,80 L-25,77 L-24,77 L-24,74 L-23,74 L-23,71 L-22,71 L-22,68 L-21,68 L-21,65 L-20,65 L-20,63 L-19,63 L-19,60 L-18,60 L-18,57 L-17,57 L-17,54 L-16,54 L-16,51 L-15,51 L-15,49 L-14,49 L-14,46 L-13,46 L-13,43 L-12,43 L-12,40 L-11,40 L-11,37 L-10,37 L-10,35 L-9,35 L-9,32 L-8,32 L-8,29 L-7,29 L-7,26 L-6,26 L-6,24 L-5,24 L-5,17 L-4,17 L-4,13 L-3,13 L-3,11 L-2,11 L-2,5 L-1,5 L-1,1 L0,1 Z " fill="#1D3C59" transform="translate(265,149)"/>
<path d="M0,0 L2,0 L2,2 L1,2 L1,5 L0,5 L0,7 L-1,7 L-1,10 L-2,10 L-2,13 L-3,13 L-3,15 L-4,15 L-4,18 L-5,18 L-5,21 L-6,21 L-6,24 L-7,24 L-7,27 L-8,27 L-8,29 L-9,29 L-9,32 L-10,32 L-10,35 L-11,35 L-11,38 L-12,38 L-12,41 L-13,41 L-13,43 L-14,43 L-14,46 L-15,46 L-15,49 L-16,49 L-16,52 L-17,52 L-17,54 L-18,54 L-18,57 L-19,57 L-19,60 L-20,60 L-20,63 L-21,63 L-21,66 L-22,66 L-22,68 L-23,68 L-23,71 L-24,71 L-24,74 L-25,74 L-25,77 L-26,77 L-26,80 L-27,80 L-27,82 L-28,82 L-28,85 L-29,85 L-29,88 L-30,88 L-30,91 L-31,91 L-31,93 L-32,93 L-32,96 L-33,96 L-33,99 L-34,99 L-34,102 L-35,102 L-35,105 L-36,105 L-36,107 L-37,107 L-37,110 L-38,110 L-38,113 L-39,113 L-39,116 L-40,116 L-40,119 L-41,119 L-41,121 L-42,121 L-42,124 L-43,124 L-43,127 L-44,127 L-44,130 L-45,130 L-45,133 L-46,133 L-46,135 L-47,135 L-47,138 L-48,138 L-48,141 L-49,141 L-49,145 L-43,145 L-43,146 L-50,146 L-50,145 L-51,145 L-51,143 L-50,143 L-50,140 L-49,140 L-49,137 L-48,137 L-48,134 L-47,134 L-47,131 L-46,131 L-46,128 L-45,128 L-45,125 L-44,125 L-44,122 L-43,122 L-43,119 L-42,119 L-42,116 L-41,116 L-41,113 L-40,113 L-40,111 L-39,111 L-39,108 L-38,108 L-38,105 L-37,105 L-37,102 L-36,102 L-36,99 L-35,99 L-35,97 L-34,97 L-34,94 L-33,94 L-33,91 L-32,91 L-32,88 L-31,88 L-31,85 L-30,85 L-30,82 L-29,82 L-29,80 L-28,80 L-28,77 L-27,77 L-27,74 L-26,74 L-26,71 L-25,71 L-25,68 L-24,68 L-24,66 L-23,66 L-23,63 L-22,63 L-22,60 L-21,60 L-21,57 L-20,57 L-20,54 L-19,54 L-19,52 L-18,52 L-18,49 L-17,49 L-17,46 L-16,46 L-16,43 L-15,43 L-15,40 L-14,40 L-14,37 L-13,37 L-13,35 L-12,35 L-12,32 L-11,32 L-11,29 L-10,29 L-10,26 L-9,26 L-9,23 L-8,23 L-8,21 L-7,21 L-7,18 L-6,18 L-6,15 L-5,15 L-5,12 L-4,12 L-4,9 L-3,9 L-3,6 L-2,6 L-2,4 L-1,4 L-1,1 L0,1 Z " fill="#70C65F" transform="translate(236,172)"/>
</svg>
