<?xml version="1.0" encoding="UTF-8"?>
<svg version="1.1" xmlns="http://www.w3.org/2000/svg" width="500" height="500">
<path d="M0,0 L500,0 L500,500 L0,500 Z " fill="#97E8CF" transform="translate(0,0)"/>
<path d="M0,0 L15,0 L15,1 L20,1 L20,2 L24,2 L24,3 L27,3 L27,4 L29,4 L29,5 L31,5 L31,6 L33,6 L33,7 L35,7 L35,8 L37,8 L37,9 L38,9 L38,10 L39,10 L39,11 L41,11 L41,12 L42,12 L42,13 L43,13 L43,14 L44,14 L44,15 L45,15 L45,16 L46,16 L46,17 L47,17 L47,18 L48,18 L48,19 L49,19 L49,20 L50,20 L50,22 L51,22 L51,23 L52,23 L52,24 L53,24 L53,26 L54,26 L54,28 L55,28 L55,30 L56,30 L56,32 L57,32 L57,34 L58,34 L58,37 L59,37 L59,40 L60,40 L60,44 L61,44 L61,60 L60,60 L60,66 L59,66 L59,70 L58,70 L58,73 L57,73 L57,76 L56,76 L56,78 L55,78 L55,80 L54,80 L54,81 L53,81 L53,83 L52,83 L52,85 L51,85 L51,86 L50,86 L50,87 L49,87 L49,89 L48,89 L48,90 L47,90 L47,91 L46,91 L46,92 L45,92 L45,93 L44,93 L44,94 L43,94 L43,95 L42,95 L42,96 L40,96 L40,97 L39,97 L39,98 L38,98 L38,99 L36,99 L36,100 L35,100 L35,101 L33,101 L33,102 L31,102 L31,103 L29,103 L29,104 L26,104 L26,105 L23,105 L23,106 L19,106 L19,107 L15,107 L15,108 L-1,108 L-1,107 L-5,107 L-5,106 L-10,106 L-10,105 L-13,105 L-13,104 L-15,104 L-15,103 L-17,103 L-17,102 L-19,102 L-19,101 L-21,101 L-21,100 L-22,100 L-22,99 L-24,99 L-24,98 L-25,98 L-25,97 L-26,97 L-26,96 L-28,96 L-28,95 L-29,95 L-29,94 L-30,94 L-30,93 L-31,93 L-31,92 L-32,92 L-32,91 L-33,91 L-33,90 L-34,90 L-34,89 L-35,89 L-35,87 L-36,87 L-36,86 L-37,86 L-37,85 L-38,85 L-38,83 L-39,83 L-39,81 L-40,81 L-40,80 L-41,80 L-41,78 L-42,78 L-42,76 L-43,76 L-43,73 L-44,73 L-44,70 L-45,70 L-45,66 L-46,66 L-46,60 L-47,60 L-47,44 L-46,44 L-46,40 L-45,40 L-45,37 L-44,37 L-44,34 L-43,34 L-43,32 L-42,32 L-42,30 L-41,30 L-41,28 L-40,28 L-40,26 L-39,26 L-39,24 L-38,24 L-38,23 L-37,23 L-37,22 L-36,22 L-36,20 L-35,20 L-35,19 L-34,19 L-34,18 L-33,18 L-33,17 L-32,17 L-32,16 L-31,16 L-31,15 L-30,15 L-30,14 L-29,14 L-29,13 L-28,13 L-28,12 L-27,12 L-27,11 L-26,11 L-26,10 L-24,10 L-24,9 L-23,9 L-23,8 L-21,8 L-21,7 L-19,7 L-19,6 L-18,6 L-18,5 L-15,5 L-15,4 L-13,4 L-13,3 L-11,3 L-11,2 L-6,2 L-6,1 L0,1 Z " fill="#1D3C58" transform="translate(243,142)"/>
<path d="M0,0 L6,0 L6,3 L7,3 L7,5 L8,5 L8,7 L9,7 L9,10 L10,10 L10,12 L11,12 L11,14 L12,14 L12,17 L13,17 L13,19 L14,19 L14,21 L15,21 L15,24 L16,24 L16,26 L17,26 L17,28 L18,28 L18,31 L19,31 L19,33 L20,33 L20,35 L21,35 L21,38 L22,38 L22,40 L23,40 L23,42 L24,42 L24,45 L25,45 L25,47 L26,47 L26,49 L27,49 L27,51 L21,51 L21,50 L20,50 L20,48 L19,48 L19,45 L18,45 L18,43 L17,43 L17,41 L16,41 L16,38 L15,38 L15,36 L14,36 L14,35 L-6,35 L-6,36 L-7,36 L-7,38 L-8,38 L-8,41 L-9,41 L-9,44 L-10,44 L-10,47 L-11,47 L-11,50 L-12,50 L-12,52 L-18,52 L-18,49 L-17,49 L-17,46 L-16,46 L-16,43 L-15,43 L-15,40 L-14,40 L-14,37 L-13,37 L-13,34 L-12,34 L-12,32 L-11,32 L-11,29 L-10,29 L-10,26 L-9,26 L-9,23 L-8,23 L-8,20 L-7,20 L-7,18 L-6,18 L-6,15 L-5,15 L-5,13 L-4,13 L-4,10 L-3,10 L-3,7 L-2,7 L-2,4 L-1,4 L-1,2 L0,2 Z " fill="#38B2F6" transform="translate(257,162)"/>
<path d="M0,0 L4,0 L4,4 L5,4 L5,3 L6,3 L6,2 L8,2 L8,1 L9,1 L9,0 L18,0 L18,1 L19,1 L19,2 L21,2 L21,3 L22,3 L22,4 L23,4 L23,6 L24,6 L24,8 L25,8 L25,21 L24,21 L24,23 L23,23 L23,25 L22,25 L22,26 L21,26 L21,27 L20,27 L20,28 L18,28 L18,29 L8,29 L8,28 L7,28 L7,27 L6,27 L6,26 L5,26 L5,25 L4,25 L4,42 L0,42 Z " fill="#090E0D" transform="translate(286,265)"/>
<path d="M0,0 L7,0 L7,1 L10,1 L10,2 L12,2 L12,3 L13,3 L13,5 L14,5 L14,6 L15,6 L15,9 L16,9 L16,20 L15,20 L15,22 L14,22 L14,25 L13,25 L13,26 L12,26 L12,27 L11,27 L11,28 L9,28 L9,29 L-1,29 L-1,28 L-3,28 L-3,27 L-4,27 L-4,26 L-5,26 L-5,42 L-9,42 L-9,1 L-5,1 L-5,4 L-4,4 L-4,3 L-3,3 L-3,2 L-2,2 L-2,1 L0,1 Z " fill="#080C0B" transform="translate(328,265)"/>
<path d="M0,0 L5,0 L5,2 L6,2 L6,4 L7,4 L7,7 L8,7 L8,9 L9,9 L9,12 L10,12 L10,15 L11,15 L11,17 L12,17 L12,20 L13,20 L13,22 L14,22 L14,25 L15,25 L15,28 L16,28 L16,30 L17,30 L17,33 L18,33 L18,35 L19,35 L19,38 L15,38 L15,37 L14,37 L14,34 L13,34 L13,32 L12,32 L12,29 L11,29 L11,26 L-5,26 L-5,27 L-6,27 L-6,29 L-7,29 L-7,32 L-8,32 L-8,34 L-9,34 L-9,37 L-10,37 L-10,38 L-14,38 L-14,36 L-13,36 L-13,33 L-12,33 L-12,31 L-11,31 L-11,28 L-10,28 L-10,25 L-9,25 L-9,23 L-8,23 L-8,20 L-7,20 L-7,18 L-6,18 L-6,15 L-5,15 L-5,13 L-4,13 L-4,10 L-3,10 L-3,8 L-2,8 L-2,5 L-1,5 L-1,2 L0,2 Z " fill="#090D0C" transform="translate(262,256)"/>
<path d="M0,0 L9,0 L9,1 L11,1 L11,2 L12,2 L12,3 L13,3 L13,4 L14,4 L14,6 L15,6 L15,9 L16,9 L16,16 L-3,16 L-3,21 L-2,21 L-2,23 L-1,23 L-1,24 L1,24 L1,25 L2,25 L2,26 L11,26 L11,25 L13,25 L13,24 L15,24 L15,28 L12,28 L12,29 L0,29 L0,28 L-2,28 L-2,27 L-3,27 L-3,26 L-5,26 L-5,24 L-6,24 L-6,22 L-7,22 L-7,20 L-8,20 L-8,9 L-7,9 L-7,7 L-6,7 L-6,5 L-5,5 L-5,4 L-4,4 L-4,3 L-3,3 L-3,2 L-2,2 L-2,1 L0,1 Z " fill="#0C1311" transform="translate(196,265)"/>
<path d="M0,0 L6,0 L6,1 L7,1 L7,4 L8,4 L8,7 L9,7 L9,10 L10,10 L10,12 L11,12 L11,15 L12,15 L12,18 L13,18 L13,21 L14,21 L14,24 L15,24 L15,27 L16,27 L16,29 L17,29 L17,32 L18,32 L18,35 L19,35 L19,38 L20,38 L20,42 L21,42 L21,38 L22,38 L22,39 L27,39 L27,41 L26,41 L26,44 L25,44 L25,47 L24,47 L24,50 L18,50 L18,49 L17,49 L17,46 L16,46 L16,44 L15,44 L15,41 L14,41 L14,38 L13,38 L13,35 L12,35 L12,32 L11,32 L11,30 L10,30 L10,27 L9,27 L9,24 L8,24 L8,21 L7,21 L7,18 L6,18 L6,16 L5,16 L5,13 L4,13 L4,10 L3,10 L3,7 L2,7 L2,4 L1,4 L1,3 L0,3 Z " fill="#78CF57" transform="translate(217,175)"/>
<path d="M0,0 L4,0 L4,1 L5,1 L5,4 L6,4 L6,7 L7,7 L7,10 L8,10 L8,12 L9,12 L9,15 L10,15 L10,18 L11,18 L11,21 L12,21 L12,24 L13,24 L13,27 L14,27 L14,30 L16,30 L16,27 L17,27 L17,24 L18,24 L18,22 L19,22 L19,19 L20,19 L20,16 L21,16 L21,13 L22,13 L22,10 L23,10 L23,8 L24,8 L24,5 L25,5 L25,2 L26,2 L26,0 L31,0 L31,1 L30,1 L30,4 L29,4 L29,7 L28,7 L28,9 L27,9 L27,12 L26,12 L26,15 L25,15 L25,18 L24,18 L24,21 L23,21 L23,23 L22,23 L22,26 L21,26 L21,29 L20,29 L20,32 L19,32 L19,34 L18,34 L18,38 L13,38 L13,36 L12,36 L12,34 L11,34 L11,31 L10,31 L10,28 L9,28 L9,25 L8,25 L8,22 L7,22 L7,20 L6,20 L6,17 L5,17 L5,14 L4,14 L4,11 L3,11 L3,9 L2,9 L2,6 L1,6 L1,3 L0,3 Z " fill="#090F0D" transform="translate(154,256)"/>
<path d="M0,0 L8,0 L8,1 L10,1 L10,3 L11,3 L11,4 L12,4 L12,16 L11,16 L11,19 L10,19 L10,20 L9,20 L9,21 L7,21 L7,22 L1,22 L1,21 L-1,21 L-1,20 L-2,20 L-2,18 L-3,18 L-3,16 L-4,16 L-4,5 L-3,5 L-3,3 L-2,3 L-2,2 L-1,2 L-1,1 L0,1 Z " fill="#93E1C9" transform="translate(327,269)"/>
<path d="M0,0 L9,0 L9,1 L10,1 L10,2 L11,2 L11,4 L12,4 L12,6 L13,6 L13,15 L12,15 L12,17 L11,17 L11,19 L10,19 L10,20 L9,20 L9,21 L7,21 L7,22 L1,22 L1,21 L0,21 L0,20 L-1,20 L-1,19 L-2,19 L-2,17 L-3,17 L-3,3 L-2,3 L-2,2 L-1,2 L-1,1 L0,1 Z " fill="#93E1C9" transform="translate(294,269)"/>
<path d="M0,0 L3,0 L3,6 L12,6 L12,10 L3,10 L3,29 L4,29 L4,31 L5,31 L5,32 L12,32 L12,35 L2,35 L2,34 L1,34 L1,33 L0,33 L0,30 L-1,30 L-1,10 L-5,10 L-5,7 L-2,7 L-2,6 L-1,6 L-1,3 L0,3 Z " fill="#090E0C" transform="translate(221,259)"/>
<path d="M0,0 L2,0 L2,3 L3,3 L3,6 L4,6 L4,8 L5,8 L5,11 L6,11 L6,13 L7,13 L7,16 L8,16 L8,18 L9,18 L9,20 L10,20 L10,22 L-6,22 L-6,19 L-5,19 L-5,16 L-4,16 L-4,13 L-3,13 L-3,10 L-2,10 L-2,8 L-1,8 L-1,3 L0,3 Z " fill="#1F4260" transform="translate(259,170)"/>
<path d="M0,0 L1,0 L1,2 L2,2 L2,5 L3,5 L3,8 L4,8 L4,10 L5,10 L5,13 L6,13 L6,16 L7,16 L7,17 L-5,17 L-5,14 L-4,14 L-4,11 L-3,11 L-3,8 L-2,8 L-2,6 L-1,6 L-1,2 L0,2 Z " fill="#8EDAC3" transform="translate(264,261)"/>
<path d="M0,0 L8,0 L8,1 L9,1 L9,2 L10,2 L10,3 L11,3 L11,8 L-3,8 L-3,4 L-2,4 L-2,2 L-1,2 L-1,1 L0,1 Z " fill="#94E4CB" transform="translate(196,269)"/>
</svg>
